<svg width="40" height="82" viewBox="0 0 40 82" fill="none" xmlns="http://www.w3.org/2000/svg">
<g clip-path="url(#clip0_307_188)">
<path d="M25.0583 81.3604C24.0971 80.4215 23.3449 78.7289 23.5843 78.0434C23.6493 77.8573 23.8789 77.5163 24.0946 77.2856C24.5555 76.7927 24.5647 76.7284 24.24 76.2724C24.0065 75.9445 23.9663 75.9331 23.4915 76.0598C23.0542 76.1766 22.9455 76.1608 22.6447 75.9371C22.4549 75.7959 22.0843 75.3067 21.8211 74.85C21.3784 74.0816 21.3533 73.987 21.4858 73.5856C21.5646 73.347 21.808 73.009 22.0268 72.8345C22.8176 72.204 22.862 72.1307 22.862 71.4541C22.862 71.0989 22.9663 70.5042 23.0938 70.1325C23.2212 69.7609 23.3662 69.1757 23.416 68.832C23.4657 68.4883 23.6457 67.6167 23.8159 66.895C23.9862 66.1732 24.2901 64.7392 24.4913 63.7082C24.6926 62.6772 24.9973 61.1588 25.1685 60.3339C25.4126 59.1578 25.4521 58.7488 25.3516 58.4379L25.2235 58.0415L24.5272 58.3494C24.1442 58.5188 23.7675 58.6359 23.6901 58.6096C23.6127 58.5834 23.3873 58.6297 23.1893 58.7125C22.9613 58.8078 22.6695 58.827 22.3942 58.7649C21.2447 58.5057 20.6571 56.9781 21.1924 55.6403C21.4143 55.0857 21.7272 54.8977 22.4284 54.8977C23.1211 54.8977 23.2046 54.5542 22.741 53.6124L22.3576 52.8337L22.559 52.1473C22.899 50.9886 23.0765 50.7157 23.6808 50.4221C24.4362 50.0551 24.851 50.0777 25.4606 50.5194C26.0615 50.9546 26.0613 50.9548 26.1675 49.5551C26.2053 49.0568 26.267 48.2633 26.3046 47.7917L26.3729 46.9343L25.586 46.7807C25.1532 46.6961 24.534 46.5135 24.21 46.3749C23.5526 46.0936 22.6407 45.1911 22.2602 44.4453C21.3477 42.6565 21.3417 40.2114 22.2457 38.5094C22.3785 38.2595 22.4871 37.9466 22.4871 37.8142C22.4871 37.6818 22.6226 37.2925 22.7883 36.9491C23.1021 36.2986 23.4253 35.2923 23.3796 35.1078C23.3651 35.049 23.419 34.9216 23.4995 34.8246C23.5954 34.7089 23.6184 34.415 23.5661 33.9704C23.5057 33.4562 23.3946 33.1927 23.106 32.8789C22.8968 32.6514 22.5196 32.0435 22.2677 31.528C21.4453 29.8446 20.6366 28.7783 20.183 28.7791C20.0412 28.7793 19.5315 29.1224 19.0504 29.5414C17.7283 30.693 16.8639 31.2383 15.0954 32.0362C14.2098 32.4358 13.3358 32.8802 13.1532 33.0238C12.9706 33.1674 12.5699 33.3961 12.2628 33.532C11.9556 33.6679 11.1027 34.1457 10.3675 34.5938C8.86892 35.5071 6.03648 36.606 4.85272 36.7333C4.19528 36.804 4.09789 36.7771 3.27632 36.2973C2.65817 35.9362 2.35353 35.6721 2.24039 35.3989C2.15224 35.1861 1.87747 34.8636 1.62979 34.6823C0.72364 34.019 0.516116 33.5702 1.08525 33.5046C1.41002 33.4672 1.38988 33.4395 0.71034 32.9897C-0.036361 32.4955 -0.215308 32.1528 0.273411 32.153C1.03287 32.1532 2.26367 32.9059 3.73577 34.2704C4.11072 34.6179 4.53264 34.9022 4.67336 34.9022C5.29266 34.9022 8.86405 32.8717 10.3139 31.6952C10.5952 31.467 11.1956 31.1124 11.6482 30.9072C12.1007 30.702 12.5104 30.4703 12.5585 30.3925C12.6067 30.3146 13.2997 29.8278 14.0986 29.3107C15.1867 28.6065 15.9234 27.9976 17.0348 26.8838C18.6838 25.2314 19.2866 24.8166 20.3662 24.5913C21.1101 24.4361 21.4039 24.2049 22.0176 23.2916C22.3599 22.7824 22.2877 22.5732 21.5057 21.808C20.6163 20.9378 20.311 20.3631 20.1299 19.2183C19.7861 17.045 19.7377 16.6644 19.7377 16.1349C19.7377 15.8249 19.8215 15.2953 19.9239 14.9579C20.0407 14.573 20.0821 14.1291 20.0349 13.7668C19.9872 13.4003 20.0105 13.1578 20.0987 13.1033C20.1751 13.0561 20.2376 12.8334 20.2376 12.6085C20.2376 12 20.5904 11.8568 21.7076 12.0116C22.2052 12.0805 22.7958 12.0896 23.0501 12.0323C23.3021 11.9754 23.6807 11.9805 23.9009 12.0436C24.119 12.1062 24.4393 12.1574 24.6127 12.1574C24.786 12.1574 25.1468 12.2748 25.4145 12.4183C25.8073 12.6288 25.959 12.6529 26.1996 12.5433C26.6906 12.3196 27.2726 12.3867 27.7694 12.7243C28.3795 13.1389 28.3751 13.4718 27.7453 14.5243C27.4756 14.9752 27.2 15.5691 27.133 15.8441C26.8465 17.0193 26.8458 17.0313 27.0637 17.0313C27.2402 17.0313 27.2605 17.1332 27.2002 17.7178C27.1241 18.4549 26.7684 19.0891 26.358 19.2193C26.1387 19.2889 26.1113 19.4119 26.1113 20.3265C26.1113 21.4132 26.2144 21.6552 26.6777 21.6552C26.9726 21.6552 27.3621 21.2089 28.2719 19.8281C28.5944 19.3387 29.2947 18.488 29.828 17.9377C30.6663 17.0727 30.911 16.7087 31.6334 15.2517C32.0931 14.3248 32.5612 13.2112 32.6736 12.7771C32.9368 11.7616 33.3582 10.9422 33.86 10.4703C34.9369 9.45751 37.2763 6.35129 37.7236 5.34016C38.0294 4.64866 37.9997 4.36858 37.5361 3.5719C37.2969 3.16092 37.0687 2.97439 36.4841 2.71204C35.8141 2.4114 35.7066 2.30955 35.4367 1.72005C35.2713 1.35873 35.0969 0.831818 35.0491 0.54913C34.9732 0.0997995 34.9916 0.0351562 35.1954 0.0351562C35.599 0.0351562 35.9875 0.410861 36.2891 1.09271C36.5457 1.67285 36.6347 1.76178 37.0337 1.83663C37.347 1.89542 37.568 1.86483 37.7498 1.73754C38.0804 1.50594 38.4832 1.66517 38.7655 2.13908C38.8746 2.32224 39.1642 2.69617 39.409 2.97003C40.0788 3.71925 40.1331 3.98896 39.8024 4.92448C39.2986 6.35015 37.7309 9.68269 36.942 11.0053C36.5182 11.7157 36.0647 12.4764 35.9342 12.6958C35.8037 12.9152 35.5105 13.3759 35.2826 13.7195C35.0546 14.0632 34.6188 14.9911 34.3141 15.7816C33.4854 17.9309 32.9905 18.9526 32.061 20.4328C31.5984 21.1695 31.1671 21.9565 31.1026 22.1816C30.8296 23.1333 31.0479 25.1557 31.5583 26.4042C32.1795 27.9237 32.3557 28.7779 32.5081 31.0097C32.6223 32.6814 32.6222 33.413 32.508 34.2029C32.421 34.8046 32.3611 36.6696 32.3629 38.7203L32.366 42.2131L34.1313 43.0879C36.6181 44.3202 37.6347 44.999 38.0471 45.7028C38.7566 46.9134 38.3476 48.3144 36.8964 49.6441C36.4435 50.0591 36.0331 50.3987 35.9846 50.3987C35.936 50.3987 35.0206 51.4532 33.9502 52.7419C32.8799 54.0307 31.675 55.3726 31.2727 55.724C30.5449 56.3596 30.5403 56.368 30.3817 57.3487C30.2941 57.8908 30.1377 58.6718 30.0343 59.0842C29.9309 59.4966 29.7923 60.2531 29.7264 60.7652C29.6605 61.2774 29.5557 61.896 29.4935 62.1399C29.4313 62.3839 29.3435 62.949 29.2985 63.3958C29.199 64.3822 28.6595 67.0981 28.4353 67.741C28.3459 67.9974 28.2331 68.5126 28.1845 68.886C28.1359 69.2593 27.9874 70.0185 27.8544 70.5731C27.7215 71.1277 27.6123 71.9928 27.6118 72.4956C27.6113 72.9985 27.556 73.5125 27.489 73.6378C27.3925 73.8181 27.4185 73.8792 27.6133 73.9302C27.9626 74.0215 28.0444 74.3369 27.8621 74.8894C27.6854 75.425 27.6706 76.2962 27.8102 77.9549C27.9603 79.7383 27.9276 80.2747 27.6273 80.9499C27.4755 81.2912 27.2832 81.6137 27.1999 81.6666C27.1167 81.7195 26.6943 81.7636 26.2613 81.7647C25.5405 81.7664 25.4389 81.7323 25.0583 81.3604Z" fill="#E3D8E3"/>
<path d="M25.0583 81.3604C24.0971 80.4215 23.3449 78.7289 23.5843 78.0434C23.6493 77.8573 23.8789 77.5163 24.0946 77.2856C24.5555 76.7927 24.5647 76.7284 24.24 76.2724C24.0065 75.9445 23.9663 75.9331 23.4916 76.0598C23.0542 76.1766 22.9456 76.1608 22.6448 75.9371C22.455 75.7959 22.0844 75.3067 21.8212 74.85C21.3784 74.0816 21.3534 73.987 21.4858 73.5856C21.5646 73.347 21.808 73.009 22.0268 72.8345C22.8177 72.204 22.8621 72.1307 22.8621 71.4541C22.8621 71.0989 22.9708 70.4922 23.1036 70.1061C23.2365 69.7199 23.3836 69.1347 23.4306 68.8055C23.4775 68.4764 23.6537 67.6167 23.8221 66.895C23.9905 66.1732 24.2923 64.7392 24.4928 63.7082C24.6932 62.6772 24.9973 61.1588 25.1685 60.3339C25.4126 59.1578 25.4521 58.7488 25.3517 58.4379L25.2236 58.0415L24.5547 58.3373C24.1868 58.5 23.782 58.6376 23.6551 58.643C23.5282 58.6485 23.1367 58.6846 22.7851 58.7233C22.202 58.7875 22.1078 58.7603 21.7132 58.4138C21.0108 57.7971 20.7932 56.6381 21.1924 55.6403C21.4143 55.0857 21.7272 54.8977 22.4284 54.8977C23.1266 54.8977 23.2134 54.5433 22.7455 53.6024L22.3598 52.8267L22.5601 52.1438C22.899 50.9889 23.077 50.7155 23.6809 50.4221C24.4363 50.0551 24.851 50.0777 25.4607 50.5194C26.0615 50.9546 26.0613 50.9548 26.1675 49.5551C26.2054 49.0568 26.267 48.2633 26.3046 47.7917L26.373 46.9343L25.586 46.7807C25.1532 46.6961 24.534 46.5135 24.21 46.3749C23.5526 46.0936 22.6408 45.1911 22.2603 44.4453C21.3477 42.6565 21.3417 40.2114 22.2458 38.5094C22.3785 38.2595 22.4871 37.9466 22.4871 37.8142C22.4871 37.6818 22.6227 37.2925 22.7883 36.9491C23.1021 36.2986 23.4253 35.2923 23.3796 35.1078C23.3651 35.049 23.419 34.9216 23.4995 34.8246C23.5955 34.7089 23.6184 34.415 23.5662 33.9704C23.5057 33.4556 23.3948 33.1931 23.1054 32.8789C22.8959 32.6514 22.5557 32.0997 22.3496 31.653C22.1434 31.2062 21.9354 30.7788 21.8873 30.7031C20.9653 29.2539 20.5442 28.7784 20.183 28.7791C20.0412 28.7793 19.5316 29.1224 19.0504 29.5414C17.7284 30.693 16.8639 31.2383 15.0954 32.0362C14.2098 32.4358 13.3358 32.8802 13.1533 33.0238C12.9707 33.1674 12.57 33.3961 12.2628 33.532C11.9556 33.6679 11.1077 34.1426 10.3785 34.587C8.6974 35.6115 5.59036 36.7715 4.51694 36.7753C3.89628 36.7776 2.57557 35.9694 2.24829 35.387C2.10133 35.1256 1.80073 34.788 1.58029 34.6368C1.11492 34.3178 0.748846 33.9038 0.744868 33.6921C0.743339 33.6107 0.896529 33.5263 1.08529 33.5046C1.41005 33.4672 1.38991 33.4395 0.710374 32.9897C-0.394864 32.2582 -0.156931 31.8891 1.11283 32.3654C1.64961 32.5668 2.61331 33.2766 3.86638 34.3935C4.17568 34.6692 4.54136 34.8965 4.679 34.8985C5.28076 34.9075 8.85586 32.8784 10.3322 31.6901C10.6235 31.4556 11.224 31.0995 11.6665 30.8989C12.109 30.6982 12.5104 30.4703 12.5586 30.3925C12.6067 30.3146 13.2997 29.8278 14.0987 29.3107C15.1868 28.6065 15.9235 27.9976 17.0349 26.8838C18.6838 25.2314 19.2866 24.8166 20.3662 24.5913C21.1102 24.4361 21.4039 24.2049 22.0177 23.2916C22.3599 22.7824 22.2877 22.5732 21.5057 21.808C20.6164 20.9378 20.311 20.3631 20.13 19.2183C19.7862 17.045 19.7378 16.6644 19.7378 16.1349C19.7378 15.8249 19.8215 15.2953 19.9239 14.9579C20.0407 14.573 20.0821 14.1291 20.0349 13.7668C19.9872 13.4003 20.0105 13.1578 20.0987 13.1033C20.1751 13.0561 20.2377 12.8334 20.2377 12.6085C20.2377 11.9965 20.6012 11.848 21.6894 12.0153C22.2143 12.096 22.7357 12.1052 23.0269 12.0387C23.3048 11.9754 23.67 11.9774 23.9009 12.0436C24.1191 12.1062 24.4394 12.1574 24.6127 12.1574C24.786 12.1574 25.1468 12.2748 25.4146 12.4183C25.8073 12.6288 25.959 12.6529 26.1997 12.5433C26.6803 12.3243 27.2058 12.3851 27.7384 12.7213C28.3845 13.1292 28.3858 13.4539 27.7454 14.5243C27.4756 14.9753 27.2001 15.5691 27.133 15.8441C26.8466 17.0193 26.8459 17.0313 27.0637 17.0313C27.2403 17.0313 27.2605 17.1332 27.2002 17.7178C27.1241 18.4549 26.7684 19.0891 26.358 19.2193C26.1387 19.2889 26.1113 19.4119 26.1113 20.3265C26.1113 21.4133 26.2145 21.6552 26.6778 21.6552C26.9733 21.6552 27.3619 21.2092 28.2797 19.8166C28.6064 19.3208 29.3066 18.4736 29.8357 17.934C30.6753 17.0776 30.9042 16.7371 31.6335 15.2595C32.0931 14.3283 32.5612 13.2112 32.6737 12.7771C32.9368 11.7616 33.3582 10.9422 33.86 10.4703C34.937 9.45752 37.2763 6.35129 37.7236 5.34017C38.0295 4.64866 37.9998 4.36858 37.5361 3.5719C37.2969 3.16092 37.0687 2.9744 36.4841 2.71204C35.8142 2.4114 35.7067 2.30956 35.4368 1.72006C35.2714 1.35874 35.0969 0.831824 35.0492 0.549135C34.9733 0.0997996 34.9917 0.0351562 35.1955 0.0351562C35.599 0.0351562 35.9876 0.410861 36.2891 1.09271C36.5457 1.67285 36.6347 1.76178 37.0337 1.83663C37.3471 1.89542 37.5681 1.86483 37.7498 1.73754C38.1089 1.48605 38.4791 1.6709 38.8641 2.29386C39.0309 2.56373 39.2027 2.78453 39.2458 2.78453C39.289 2.78453 39.4726 2.99844 39.6537 3.25989C40.0633 3.85083 40.0715 4.37442 39.6856 5.28396C38.6712 7.67486 37.6186 9.87067 36.9471 10.9967C36.5205 11.7118 36.0648 12.4764 35.9343 12.6958C35.8038 12.9152 35.5116 13.3759 35.2851 13.7195C35.0586 14.0632 34.5964 15.0474 34.258 15.9065C33.3467 18.221 32.9934 18.9458 32.0105 20.5184C31.0061 22.1253 30.9069 22.4906 31.0321 24.1195C31.1081 25.1084 31.1939 25.4329 31.8342 27.154C32.5196 28.9963 32.5815 30.1386 32.4298 38.1515L32.3529 42.2131L34.3526 43.2119C36.8351 44.4518 37.6836 45.0345 38.068 45.7632C38.7195 46.9982 38.3112 48.3477 36.8929 49.6474C36.4419 50.0606 36.0318 50.3987 35.9815 50.3987C35.9312 50.3987 35.139 51.3126 34.2211 52.4295C33.3032 53.5464 32.0956 54.9102 31.5377 55.4601L30.5232 56.4598L30.371 57.3971C30.2872 57.9126 30.1349 58.6718 30.0325 59.0842C29.9301 59.4966 29.7924 60.2531 29.7265 60.7652C29.6606 61.2774 29.5557 61.896 29.4935 62.1399C29.4313 62.3839 29.3436 62.949 29.2985 63.3958C29.199 64.3822 28.6595 67.0981 28.4354 67.741C28.346 67.9974 28.2331 68.5126 28.1845 68.886C28.136 69.2593 27.9874 70.0185 27.8545 70.5731C27.7215 71.1277 27.6123 71.9928 27.6119 72.4956C27.6114 72.9985 27.5561 73.5125 27.489 73.6378C27.3925 73.8181 27.4185 73.8792 27.6133 73.9302C27.9627 74.0215 28.0445 74.3369 27.8622 74.8894C27.6851 75.426 27.6695 76.3006 27.8074 77.9549C27.9578 79.7585 27.9266 80.2769 27.6273 80.9499C27.4755 81.2912 27.2832 81.6137 27.2 81.6666C27.1167 81.7195 26.6943 81.7636 26.2613 81.7647C25.5405 81.7664 25.439 81.7323 25.0583 81.3604Z" fill="#AD6BAB"/>
<path d="M25.0581 81.3604C24.0969 80.4215 23.3447 78.7289 23.5841 78.0434C23.6491 77.8573 23.8787 77.5163 24.0944 77.2856C24.5553 76.7927 24.5645 76.7284 24.2398 76.2724C24.0063 75.9445 23.9661 75.9331 23.4913 76.0598C23.054 76.1766 22.9453 76.1608 22.6445 75.9371C22.4547 75.7959 22.0841 75.3067 21.8209 74.85C21.3782 74.0816 21.3531 73.987 21.4856 73.5856C21.5644 73.347 21.8078 73.009 22.0266 72.8345C22.8174 72.204 22.8618 72.1307 22.8618 71.4541C22.8618 71.0989 22.9705 70.4922 23.1034 70.1061C23.2363 69.7199 23.3834 69.1347 23.4303 68.8055C23.4773 68.4764 23.6535 67.6167 23.8219 66.895C23.9903 66.1732 24.2921 64.7392 24.4925 63.7082C24.693 62.6772 24.9971 61.1588 25.1683 60.3339C25.4124 59.1578 25.4519 58.7488 25.3514 58.4379L25.2233 58.0415L24.5544 58.3373C24.1865 58.5 23.7817 58.6376 23.6549 58.643C23.528 58.6485 23.1365 58.6846 22.7849 58.7233C22.2017 58.7875 22.1076 58.7603 21.713 58.4138C21.0106 57.7971 20.7929 56.6381 21.1922 55.6403C21.4141 55.0857 21.727 54.8977 22.4282 54.8977C23.1264 54.8977 23.2132 54.5433 22.7453 53.6024L22.3595 52.8267L22.5599 52.1438C22.8988 50.9889 23.0767 50.7155 23.6806 50.4221C24.4361 50.0551 24.8508 50.0777 25.4604 50.5194C26.0613 50.9546 26.0611 50.9548 26.1673 49.5551C26.2051 49.0568 26.2668 48.2633 26.3044 47.7917L26.3727 46.9343L25.5858 46.7807C25.153 46.6961 24.5338 46.5135 24.2098 46.3749C23.5524 46.0936 22.6405 45.1911 22.26 44.4453C21.3527 42.6668 21.3467 40.2017 22.2456 38.5094C22.3783 38.2595 22.4869 37.9466 22.4869 37.8142C22.4869 37.6818 22.6224 37.2925 22.7881 36.9491C23.1019 36.2986 23.4251 35.2923 23.3794 35.1078C23.3649 35.049 23.4188 34.9216 23.4993 34.8246C23.5952 34.7089 23.6182 34.415 23.5659 33.9704C23.5054 33.4556 23.3946 33.1931 23.1052 32.8789C22.8956 32.6514 22.5555 32.0997 22.3494 31.653C22.1432 31.2062 21.9352 30.7788 21.8871 30.7031C20.9651 29.2539 20.544 28.7784 20.1828 28.7791C20.041 28.7793 19.5313 29.1224 19.0502 29.5414C17.7281 30.693 16.8637 31.2383 15.0952 32.0362C14.2096 32.4358 13.3356 32.8802 13.153 33.0238C12.9704 33.1674 12.5697 33.3961 12.2626 33.532C11.9554 33.6679 11.1075 34.1426 10.3783 34.587C8.69717 35.6115 5.59013 36.7715 4.51672 36.7753C3.89605 36.7776 2.57534 35.9694 2.24806 35.387C2.1011 35.1256 1.8005 34.788 1.58006 34.6368C0.730164 34.0542 0.472346 33.4596 1.11018 33.5532C1.58749 33.6233 1.51511 33.5254 0.679604 32.9708C-0.397567 32.2558 -0.139892 31.8955 1.1126 32.3654C1.64938 32.5668 2.61309 33.2766 3.86615 34.3935C4.17545 34.6692 4.54113 34.8965 4.67877 34.8985C5.28053 34.9075 8.85563 32.8784 10.332 31.6901C10.6233 31.4556 11.2237 31.0995 11.6663 30.8989C12.1088 30.6982 12.5102 30.4703 12.5583 30.3925C12.6065 30.3146 13.2995 29.8278 14.0984 29.3107C15.1865 28.6065 15.9232 27.9976 17.0346 26.8838C18.6836 25.2314 19.2864 24.8166 20.366 24.5913C21.1099 24.4361 21.4037 24.2049 22.0174 23.2916C22.3597 22.7824 22.2875 22.5732 21.5055 21.808C20.6161 20.9378 20.3108 20.3631 20.1297 19.2183C19.786 17.045 19.7375 16.6644 19.7375 16.1349C19.7375 15.8249 19.8213 15.2953 19.9237 14.9579C20.0405 14.573 20.0819 14.1291 20.0347 13.7668C19.987 13.4003 20.0103 13.1578 20.0985 13.1033C20.1749 13.0561 20.2374 12.8334 20.2374 12.6085C20.2374 11.9965 20.601 11.848 21.6892 12.0153C22.214 12.096 22.7355 12.1052 23.0267 12.0387C23.3046 11.9754 23.6697 11.9774 23.9007 12.0436C24.1189 12.1062 24.4391 12.1574 24.6125 12.1574C24.7858 12.1574 25.1466 12.2748 25.4143 12.4183C25.8071 12.6288 25.9588 12.6529 26.1994 12.5433C26.6801 12.3243 27.2056 12.3851 27.7382 12.7213C28.3843 13.1292 28.3855 13.4539 27.7451 14.5243C27.4754 14.9753 27.1998 15.5691 27.1328 15.8441C26.8463 17.0193 26.8456 17.0313 27.0635 17.0313C27.24 17.0313 27.2603 17.1332 27.2 17.7178C27.1239 18.4549 26.7682 19.0891 26.3578 19.2193C26.1385 19.2889 26.1111 19.4119 26.1111 20.3265C26.1111 21.4133 26.2143 21.6552 26.6775 21.6552C26.9732 21.6552 27.3616 21.2093 28.2813 19.8138C28.609 19.3166 29.3092 18.4727 29.8373 17.9385C30.6799 17.0862 30.8996 16.7601 31.6308 15.2762C32.0891 14.3461 32.5572 13.2257 32.671 12.7865C32.9365 11.7621 33.3566 10.9435 33.8598 10.4703C34.9367 9.45752 37.2761 6.35129 37.7234 5.34017C38.0292 4.64866 37.9995 4.36858 37.5359 3.5719C37.2967 3.16092 37.0685 2.9744 36.4839 2.71204C35.814 2.4114 35.7064 2.30956 35.4365 1.72006C35.2711 1.35874 35.0967 0.831824 35.0489 0.549135C34.973 0.0997996 34.9914 0.0351562 35.1952 0.0351562C35.5988 0.0351562 35.9873 0.410861 36.2889 1.09271C36.5455 1.67285 36.6345 1.76178 37.0335 1.83663C37.3468 1.89542 37.5678 1.86483 37.7496 1.73754C38.1086 1.48605 38.4789 1.6709 38.8639 2.29386C39.0307 2.56373 39.2025 2.78453 39.2456 2.78453C39.2888 2.78453 39.4723 2.99844 39.6535 3.25989C40.063 3.85083 40.0713 4.37442 39.6854 5.28396C38.671 7.67486 37.6184 9.87067 36.9468 10.9967C36.5203 11.7118 36.0645 12.4764 35.934 12.6958C35.8035 12.9152 35.5114 13.3759 35.2849 13.7195C35.0583 14.0632 34.5962 15.0474 34.2578 15.9065C33.3464 18.221 32.9932 18.9458 32.0102 20.5184C31.0048 22.1271 30.9066 22.4898 31.0326 24.1295C31.107 25.0964 31.2375 25.5764 31.9258 27.4127C32.5096 28.9702 32.5764 30.3952 32.4296 38.1515L32.3527 42.2131L34.3524 43.2119C36.8349 44.4518 37.6834 45.0345 38.0678 45.7632C38.7192 46.9982 38.311 48.3477 36.8926 49.6474C36.4417 50.0606 36.0315 50.3987 35.9812 50.3987C35.931 50.3987 35.1381 51.3126 34.2192 52.4295C33.3004 53.5464 32.0923 54.9102 31.5346 55.4601L30.5206 56.4598L30.3695 57.3971C30.2864 57.9126 30.1347 58.6718 30.0323 59.0842C29.9299 59.4966 29.7921 60.2531 29.7262 60.7652C29.6603 61.2774 29.5555 61.896 29.4933 62.1399C29.4311 62.3839 29.3433 62.949 29.2983 63.3958C29.1988 64.3822 28.6593 67.0981 28.4351 67.741C28.3457 67.9974 28.2329 68.5126 28.1843 68.886C28.1357 69.2593 27.9872 70.0185 27.8542 70.5731C27.7213 71.1277 27.6121 71.9928 27.6116 72.4956C27.6111 72.9985 27.5559 73.5125 27.4888 73.6378C27.3923 73.8181 27.4183 73.8792 27.6131 73.9302C27.9624 74.0215 28.0443 74.3369 27.8619 74.8894C27.6848 75.426 27.6692 76.3006 27.8072 77.9549C27.9576 79.7585 27.9264 80.2769 27.6271 80.9499C27.4753 81.2912 27.283 81.6137 27.1997 81.6666C27.1165 81.7195 26.6941 81.7636 26.2611 81.7647C25.5403 81.7664 25.4387 81.7323 25.0581 81.3604Z" fill="#AB66AA"/>
<path d="M25.0581 81.3593C24.0969 80.4204 23.3447 78.7278 23.5841 78.0423C23.6491 77.8562 23.8787 77.5152 24.0944 77.2845C24.5625 76.7838 24.5718 76.6873 24.1967 76.2186C23.9481 75.9079 23.8716 75.8777 23.6432 75.9999C22.9865 76.3514 22.4714 76.0227 21.8014 74.8244C21.3837 74.0776 21.3573 73.9732 21.4871 73.5799C21.565 73.3438 21.8078 73.0079 22.0266 72.8334C22.8174 72.2029 22.8618 72.1296 22.8618 71.453C22.8618 71.0978 22.9705 70.4911 23.1034 70.105C23.2363 69.7188 23.3834 69.1336 23.4303 68.8044C23.4773 68.4753 23.6535 67.6156 23.8219 66.8939C23.9903 66.1721 24.2921 64.7381 24.4925 63.7071C24.693 62.6761 24.9971 61.1577 25.1683 60.3328C25.4124 59.1567 25.4519 58.7477 25.3514 58.4368L25.2233 58.0404L24.5544 58.3362C24.1865 58.4989 23.7817 58.6365 23.6549 58.6419C23.528 58.6474 23.1365 58.6835 22.7849 58.7222C22.2017 58.7864 22.1076 58.7592 21.713 58.4127C21.0106 57.796 20.7929 56.637 21.1922 55.6392C21.4141 55.0846 21.727 54.8966 22.4282 54.8966C23.1264 54.8966 23.2132 54.5422 22.7453 53.6013L22.3595 52.8256L22.5599 52.1427C22.8988 50.9878 23.0767 50.7144 23.6806 50.421C24.4361 50.054 24.8508 50.0766 25.4604 50.5183C26.0613 50.9535 26.0611 50.9537 26.1673 49.554C26.2051 49.0557 26.2668 48.2622 26.3044 47.7906L26.3727 46.9332L25.5858 46.7796C25.153 46.695 24.5338 46.5124 24.2098 46.3738C23.5524 46.0925 22.6405 45.19 22.2601 44.4442C21.3527 42.6657 21.3467 40.2006 22.2456 38.5083C22.3783 38.2584 22.4869 37.9455 22.4869 37.8131C22.4869 37.6807 22.6224 37.2914 22.7881 36.948C23.1019 36.2975 23.4251 35.2912 23.3794 35.1067C23.3649 35.0479 23.4188 34.9204 23.4993 34.8235C23.5965 34.7063 23.6179 34.4111 23.5629 33.9433C23.4981 33.3923 23.3977 33.1553 23.1004 32.8518C22.8916 32.6386 22.5528 32.0986 22.3476 31.6519C22.1424 31.2051 21.9352 30.7777 21.8871 30.702C20.9573 29.2406 20.5442 28.7775 20.1701 28.7775C20.0163 28.7775 19.5278 29.107 19.0375 29.5415C17.7439 30.6879 16.898 31.218 14.9554 32.1C13.9854 32.5404 13.1573 32.9566 13.1151 33.0249C13.0728 33.0932 12.6903 33.3177 12.2649 33.5238C11.8395 33.7298 10.9964 34.2047 10.3913 34.579C9.78621 34.9533 8.98436 35.382 8.60943 35.5318C7.08093 36.1422 5.39134 36.677 4.79328 36.7397C4.22434 36.7994 4.07276 36.7571 3.33676 36.3338C2.76881 36.0072 2.43279 35.7146 2.24806 35.3859C2.1011 35.1245 1.8005 34.7869 1.58006 34.6357C0.730164 34.0531 0.472346 33.4585 1.11018 33.5521C1.58749 33.6222 1.51511 33.5243 0.679604 32.9697C-0.397567 32.2547 -0.139892 31.8944 1.1126 32.3643C1.64938 32.5657 2.61309 33.2755 3.86615 34.3924C4.17546 34.6681 4.54113 34.8953 4.67877 34.8974C5.2799 34.9064 8.85517 32.8776 10.3294 31.6911C10.6193 31.4577 11.1817 31.1191 11.5791 30.9386C11.9766 30.7581 12.5267 30.4302 12.8016 30.21C13.0766 29.9898 13.8076 29.4861 14.4263 29.0908C15.1828 28.6073 16.0366 27.885 17.0346 26.884C18.6832 25.2306 19.2859 24.8156 20.366 24.5902C21.1099 24.435 21.4037 24.2038 22.0175 23.2905C22.3597 22.7813 22.2875 22.5721 21.5055 21.8069C20.6161 20.9367 20.3108 20.362 20.1297 19.2172C19.786 17.0439 19.7375 16.6633 19.7375 16.1338C19.7375 15.8238 19.8213 15.2942 19.9237 14.9568C20.0405 14.5719 20.0819 14.128 20.0347 13.7657C19.987 13.3992 20.0103 13.1567 20.0985 13.1022C20.1749 13.055 20.2374 12.8323 20.2374 12.6074C20.2374 11.9954 20.601 11.8469 21.6892 12.0142C22.2141 12.0949 22.7355 12.1041 23.0267 12.0376C23.3046 11.9743 23.6697 11.9763 23.9007 12.0425C24.1189 12.1051 24.4392 12.1563 24.6125 12.1563C24.7858 12.1563 25.1466 12.2737 25.4143 12.4172C25.8071 12.6277 25.9588 12.6518 26.1994 12.5422C26.6835 12.3216 27.2067 12.3847 27.7528 12.7295C28.2241 13.0269 28.2593 13.0866 28.1957 13.4788C28.1576 13.7132 27.9297 14.2286 27.6893 14.624C27.4488 15.0195 27.1978 15.568 27.1315 15.843C26.8499 17.0107 26.8485 17.0302 27.046 17.0302C27.5634 17.0302 27.0251 18.9034 26.4297 19.1746C26.1262 19.3129 26.1111 19.368 26.1111 20.337C26.1111 21.412 26.2153 21.6541 26.678 21.6541C26.9653 21.6541 27.4994 21.0345 28.3746 19.6855C28.6534 19.2557 29.3127 18.4681 29.8396 17.9351C30.6804 17.0846 30.8998 16.7585 31.6345 15.2677C32.0948 14.3335 32.5393 13.2935 32.6223 12.9565C32.8902 11.8681 33.3554 10.9851 34.0314 10.2817C35.4516 8.80401 37.2974 6.32425 37.736 5.30469C37.9642 4.77424 37.9857 4.60669 37.8704 4.25934C37.5932 3.42389 37.2734 3.06526 36.4938 2.71541C35.8129 2.40985 35.7072 2.31023 35.4365 1.71896C35.2711 1.35764 35.0954 0.823059 35.0461 0.531006L34.9564 0L35.3132 0.0895598C35.8187 0.216424 35.9721 0.375207 36.2953 1.10598C36.5452 1.67111 36.6361 1.76098 37.0335 1.83553C37.3468 1.89431 37.5678 1.86373 37.7496 1.73643C38.1086 1.48495 38.4789 1.6698 38.8639 2.29275C39.0307 2.56263 39.2025 2.78343 39.2456 2.78343C39.2888 2.78343 39.4723 2.99734 39.6535 3.25879C40.0642 3.85136 40.0714 4.37617 39.6813 5.28286C37.878 9.47461 37.3441 10.4992 35.3182 13.656C35.0756 14.034 34.5993 15.0463 34.2599 15.9054C33.342 18.2286 32.991 18.9482 32.0102 20.5173C30.9974 22.1377 30.9077 22.4777 31.0373 24.2014C31.1019 25.0601 31.2269 25.6025 31.5447 26.4031C32.1984 28.0501 32.3564 28.8051 32.5105 31.0171C32.6193 32.5776 32.6183 33.3126 32.5066 34.0854C32.4206 34.6802 32.3609 36.5756 32.3625 38.6568L32.3654 42.212L34.3588 43.2108C36.8387 44.4534 37.6843 45.035 38.0678 45.7621C38.723 47.0041 38.3091 48.3585 36.8803 49.648C36.4235 50.0603 36.0138 50.3976 35.9698 50.3976C35.9258 50.3976 35.1381 51.3115 34.2192 52.4284C33.3004 53.5453 32.0923 54.9091 31.5346 55.459L30.5206 56.4587L30.3695 57.396C30.2865 57.9115 30.1347 58.6707 30.0323 59.0831C29.9299 59.4955 29.7922 60.252 29.7262 60.7641C29.6603 61.2763 29.5555 61.8949 29.4933 62.1388C29.4311 62.3828 29.3433 62.9479 29.2983 63.3947C29.1988 64.3811 28.6593 67.097 28.4351 67.7399C28.3457 67.9963 28.2329 68.5115 28.1843 68.8849C28.1357 69.2582 27.9872 70.0174 27.8543 70.572C27.7213 71.1266 27.6121 71.9917 27.6116 72.4945C27.6111 72.9974 27.5559 73.5114 27.4888 73.6367C27.3923 73.817 27.4183 73.8781 27.6131 73.9291C27.9624 74.0204 28.0443 74.3358 27.8619 74.8883C27.6849 75.4249 27.6692 76.2995 27.8072 77.9538C27.9576 79.7574 27.9264 80.2758 27.6271 80.9488C27.4753 81.2901 27.283 81.6126 27.1997 81.6655C27.1165 81.7184 26.6941 81.7625 26.2611 81.7636C25.5403 81.7653 25.4387 81.7312 25.0581 81.3593Z" fill="#9B409A"/>
<path d="M25.0581 81.3593C24.0969 80.4204 23.3447 78.7278 23.5841 78.0423C23.6491 77.8562 23.8787 77.5152 24.0944 77.2845C24.5625 76.7838 24.5718 76.6873 24.1967 76.2186C23.9481 75.9079 23.8716 75.8777 23.6432 75.9999C22.9865 76.3514 22.4714 76.0227 21.8014 74.8244C21.3837 74.0776 21.3573 73.9732 21.4871 73.5799C21.565 73.3438 21.8078 73.0079 22.0266 72.8334C22.8174 72.2029 22.8618 72.1296 22.8618 71.453C22.8618 71.0978 22.9705 70.4911 23.1034 70.105C23.2363 69.7188 23.3834 69.1336 23.4303 68.8044C23.4773 68.4753 23.6535 67.6156 23.8219 66.8939C23.9903 66.1721 24.2921 64.7381 24.4925 63.7071C24.693 62.6761 24.9971 61.1577 25.1683 60.3328C25.4124 59.1567 25.4519 58.7477 25.3514 58.4368L25.2233 58.0404L24.5544 58.3362C24.1865 58.4989 23.7817 58.6365 23.6549 58.6419C23.528 58.6474 23.1365 58.6835 22.7849 58.7222C22.2017 58.7864 22.1076 58.7592 21.713 58.4127C21.0106 57.796 20.7929 56.637 21.1922 55.6392C21.4141 55.0846 21.727 54.8966 22.4282 54.8966C23.1272 54.8966 23.2132 54.5423 22.7434 53.5976L22.3558 52.8182L22.6213 51.9516C22.9219 50.9706 23.104 50.7206 23.7629 50.3843C24.4139 50.0521 24.8662 50.0878 25.4604 50.5183C26.0613 50.9535 26.0611 50.9537 26.1673 49.554C26.2051 49.0557 26.2668 48.2622 26.3044 47.7906L26.3727 46.9332L25.5858 46.7796C25.153 46.695 24.5338 46.5124 24.2098 46.3738C23.5524 46.0925 22.6405 45.19 22.2601 44.4442C21.3527 42.6657 21.3467 40.2006 22.2456 38.5083C22.3783 38.2584 22.4869 37.9455 22.4869 37.8131C22.4869 37.6807 22.6224 37.2914 22.7881 36.948C23.1019 36.2975 23.4251 35.2912 23.3794 35.1067C23.3649 35.0479 23.4188 34.9204 23.4993 34.8235C23.5965 34.7063 23.6179 34.4111 23.5629 33.9433C23.4981 33.3923 23.3977 33.1553 23.1004 32.8518C22.8916 32.6386 22.5528 32.0986 22.3476 31.6519C22.1424 31.2051 21.9352 30.7777 21.8871 30.702C20.9573 29.2406 20.5442 28.7775 20.1701 28.7775C20.0163 28.7775 19.5278 29.107 19.0375 29.5415C17.7439 30.6879 16.898 31.218 14.9554 32.1C13.9854 32.5404 13.1573 32.9566 13.1151 33.0249C13.0728 33.0932 12.6903 33.3177 12.2649 33.5238C11.8395 33.7298 10.9976 34.2039 10.3941 34.5773C8.83213 35.5434 5.55444 36.7757 4.54646 36.7757C3.89443 36.7757 2.58372 35.9832 2.24806 35.3859C2.1011 35.1245 1.8005 34.7869 1.58006 34.6357C0.730164 34.0531 0.472346 33.4585 1.11018 33.5521C1.58749 33.6222 1.51511 33.5243 0.679604 32.9697C-0.397567 32.2547 -0.139892 31.8944 1.1126 32.3643C1.64938 32.5657 2.61309 33.2755 3.86615 34.3924C4.17546 34.6681 4.54113 34.8953 4.67877 34.8974C5.2799 34.9064 8.85517 32.8776 10.3294 31.6911C10.6193 31.4577 11.1817 31.1191 11.5791 30.9386C11.9766 30.7581 12.5267 30.4302 12.8016 30.21C13.0766 29.9898 13.8076 29.4861 14.4263 29.0908C15.1828 28.6073 16.0366 27.885 17.0346 26.884C18.6832 25.2306 19.2859 24.8156 20.366 24.5902C21.1099 24.435 21.4037 24.2038 22.0175 23.2905C22.3597 22.7813 22.2875 22.5721 21.5055 21.8069C20.6161 20.9367 20.3108 20.362 20.1297 19.2172C19.786 17.0439 19.7375 16.6633 19.7375 16.1338C19.7375 15.8238 19.8213 15.2942 19.9237 14.9568C20.0405 14.5719 20.0819 14.128 20.0347 13.7657C19.987 13.3992 20.0103 13.1567 20.0985 13.1022C20.1749 13.055 20.2374 12.8323 20.2374 12.6074C20.2374 11.9954 20.601 11.8469 21.6892 12.0142C22.2141 12.0949 22.7355 12.1041 23.0267 12.0376C23.3046 11.9743 23.6697 11.9763 23.9007 12.0425C24.1189 12.1051 24.4392 12.1563 24.6125 12.1563C24.7858 12.1563 25.1466 12.2737 25.4143 12.4172C25.8071 12.6277 25.9588 12.6518 26.1994 12.5422C26.6835 12.3216 27.2067 12.3847 27.7528 12.7295C28.2241 13.0269 28.2593 13.0866 28.1957 13.4788C28.1576 13.7132 27.9297 14.2286 27.6893 14.624C27.4488 15.0195 27.1978 15.568 27.1315 15.843C26.8499 17.0107 26.8485 17.0302 27.046 17.0302C27.5634 17.0302 27.0251 18.9034 26.4297 19.1746C26.1262 19.3129 26.1111 19.368 26.1111 20.337C26.1111 21.412 26.2153 21.6541 26.678 21.6541C26.9653 21.6541 27.4994 21.0345 28.3746 19.6855C28.6534 19.2557 29.3127 18.4681 29.8396 17.9351C30.6804 17.0846 30.8998 16.7585 31.6345 15.2677C32.0948 14.3335 32.5393 13.2935 32.6223 12.9565C32.8902 11.8681 33.3554 10.9851 34.0314 10.2817C35.4516 8.80401 37.2974 6.32425 37.736 5.30469C37.9642 4.77424 37.9857 4.60669 37.8704 4.25934C37.5932 3.42389 37.2734 3.06526 36.4938 2.71541C35.8129 2.40985 35.7072 2.31023 35.4365 1.71896C35.2711 1.35764 35.0954 0.823059 35.0461 0.531006L34.9564 0L35.3132 0.0895598C35.8187 0.216424 35.9721 0.375207 36.2953 1.10598C36.5452 1.67111 36.6361 1.76098 37.0335 1.83553C37.3468 1.89431 37.5678 1.86373 37.7496 1.73643C38.1086 1.48495 38.4789 1.6698 38.8639 2.29275C39.0307 2.56263 39.2025 2.78343 39.2456 2.78343C39.2888 2.78343 39.4723 2.99734 39.6535 3.25879C40.0642 3.85136 40.0714 4.37617 39.6813 5.28286C37.878 9.47461 37.3441 10.4992 35.3182 13.656C35.0756 14.034 34.5993 15.0463 34.2599 15.9054C33.342 18.2286 32.991 18.9482 32.0102 20.5173C30.9974 22.1377 30.9077 22.4777 31.0373 24.2014C31.1019 25.0601 31.2269 25.6025 31.5447 26.4031C32.1984 28.0501 32.3564 28.8051 32.5105 31.0171C32.6193 32.5776 32.6183 33.3126 32.5066 34.0854C32.4206 34.6802 32.3609 36.5756 32.3625 38.6568L32.3654 42.212L34.3588 43.2108C36.8387 44.4534 37.6843 45.035 38.0678 45.7621C38.723 47.0041 38.3091 48.3585 36.8803 49.648C36.4235 50.0603 36.0138 50.3976 35.9698 50.3976C35.9258 50.3976 35.1381 51.3115 34.2192 52.4284C33.3004 53.5453 32.0923 54.9091 31.5346 55.459L30.5206 56.4587L30.3695 57.396C30.2865 57.9115 30.1347 58.6707 30.0323 59.0831C29.9299 59.4955 29.7922 60.252 29.7262 60.7641C29.6603 61.2763 29.5555 61.8949 29.4933 62.1388C29.4311 62.3828 29.3433 62.9479 29.2983 63.3947C29.1988 64.3811 28.6593 67.097 28.4351 67.7399C28.3457 67.9963 28.2329 68.5115 28.1843 68.8849C28.1357 69.2582 27.9872 70.0174 27.8543 70.572C27.7213 71.1266 27.6121 71.9917 27.6116 72.4945C27.6111 72.9974 27.5559 73.5114 27.4888 73.6367C27.3923 73.817 27.4183 73.8781 27.6131 73.9291C27.9624 74.0204 28.0443 74.3358 27.8619 74.8883C27.6849 75.4249 27.6692 76.2995 27.8072 77.9538C27.9576 79.7574 27.9264 80.2758 27.6271 80.9488C27.4753 81.2901 27.283 81.6126 27.1997 81.6655C27.1165 81.7184 26.6941 81.7625 26.2611 81.7636C25.5403 81.7653 25.4387 81.7312 25.0581 81.3593Z" fill="#7000FF"/>
<path d="M25.0581 81.3596C22.9525 79.9552 24.069 77.7386 24.1967 76.2189C21.8646 76.4649 20.4505 73.2299 22.8426 71.8657C23.5513 67.6072 24.6701 63.3913 25.3812 59.1165C25.6051 56.6248 20.6616 60.745 20.9963 56.7929C20.9641 54.5669 24.0853 54.9814 22.4092 52.6444C22.3446 50.1076 25.1023 50.2823 26.0966 50.3567C26.4524 48.2311 26.8967 46.2648 24.1169 46.3159C21.1343 44.6535 21.0716 40.5294 22.4869 37.8041C24.5128 34.8693 22.9182 31.939 21.0339 29.4511C18.9222 27.974 16.8102 32.2575 14.2646 32.421C11.1226 34.0435 8.13233 36.2521 4.54647 36.776C2.84142 36.5356 0.420298 33.921 1.16649 33.3048C-1.83199 31.0772 3.36554 33.0793 3.86616 34.3927C6.56364 35.4793 9.11214 31.9766 11.5791 30.9389C14.6783 29.4627 16.8082 26.6815 19.6002 24.8213C21.964 24.7063 23.004 22.1297 20.7199 20.8949C19.4614 18.1693 19.6823 15.045 20.3112 12.2337C22.8297 11.7675 25.8764 12.1544 28.1748 13.0689C27.1216 15.1222 27.2667 17.081 26.6483 19.0049C24.9073 20.4434 27.1173 23.0715 28.0649 20.1657C29.9353 17.8297 32.0256 15.5489 32.7381 12.5338C33.8986 9.53765 37.049 7.69671 37.9805 4.54867C37.6871 3.08812 33.9235 1.26614 35.3132 0.0898438C36.3745 1.11698 37.0565 2.04481 38.5779 1.90794C41.6042 4.36533 38.2259 7.72784 37.294 10.4099C35.3277 13.2154 34.1213 16.3968 32.648 19.459C29.9313 22.2093 31.3119 25.9108 32.3107 29.0422C32.891 33.1413 32.1825 37.2654 32.3647 41.3873C32.0552 42.7645 33.9951 42.7493 34.8049 43.4365C38.4529 44.162 39.633 48.669 35.9698 50.3979C34.1504 52.4187 32.514 54.6138 30.5039 56.459C29.6469 61.0987 29.0059 65.7763 27.8849 70.3649C27.3142 73.4582 27.8875 75.8668 27.8846 79.0883C28.1745 80.9722 26.9484 82.7426 25.0581 81.3596Z" fill="#7000FF"/>
</g>
<defs>
<clipPath id="clip0_307_188">
<rect width="40" height="81.7636" fill="white"/>
</clipPath>
</defs>
</svg>
