<svg width="30" height="27" viewBox="0 0 30 27" fill="none" xmlns="http://www.w3.org/2000/svg">
<path d="M0 0.5C0 0.223857 0.223858 0 0.5 0H29.5C29.7761 0 30 0.223858 30 0.5V2.83333C30 3.10948 29.7761 3.33333 29.5 3.33333H0.5C0.223857 3.33333 0 3.10948 0 2.83333V0.5ZM10 12.1667C10 11.8905 10.2239 11.6667 10.5 11.6667H29.5C29.7761 11.6667 30 11.8905 30 12.1667V14.5C30 14.7761 29.7761 15 29.5 15H10.5C10.2239 15 10 14.7761 10 14.5V12.1667ZM0 23.8333C0 23.5572 0.223858 23.3333 0.5 23.3333H29.5C29.7761 23.3333 30 23.5572 30 23.8333V26.1667C30 26.4428 29.7761 26.6667 29.5 26.6667H0.5C0.223857 26.6667 0 26.4428 0 26.1667V23.8333Z" fill="#202020"/>
</svg>
