<svg width="400" height="400" viewBox="0 0 400 400" fill="none" xmlns="http://www.w3.org/2000/svg">
<path d="M212.988 198.064C209.384 195.361 205.222 190.33 200.838 184.64C196.435 178.95 191.758 172.603 186.716 167.156C181.644 161.72 176.248 157.072 169.951 155.058C166.812 154.066 163.431 153.803 160.019 154.562C156.608 155.311 153.216 157.052 149.916 159.816C141.108 167.166 135.104 177.199 131.439 188.426C127.775 199.664 126.418 212.146 126.894 224.66C127.38 237.172 129.708 249.726 133.515 261.146C137.332 272.566 142.616 282.852 149.197 290.84C158.48 302.158 169.495 307.938 180.783 309.052C192.082 310.196 203.33 306.906 213.808 301.338C234.744 290.142 253.068 269.792 263.81 252.926C281.132 225.53 287.56 189.246 279.988 157.781C276.17 142.059 268.75 127.49 257.158 116.192C245.576 104.894 229.834 97.0276 210.214 94.5876C189.611 92.0162 168.28 96.7848 149.045 106.413C129.81 116.061 112.599 130.609 100.237 148.093C86.1652 167.986 78.3192 191.909 81.812 216.48C84.667 236.546 92.4218 253.664 103.406 267.038C114.391 280.422 128.574 290.06 144.185 295.324C159.797 300.59 176.845 301.5 193.519 297.492C210.194 293.482 226.462 284.542 240.504 270.338C261.116 249.464 276.788 222.848 283.076 194.47C289.362 166.134 286.022 135.832 268.386 108.953C255.924 89.8394 238.986 77.9236 220.226 72.0012C201.446 66.0482 180.945 65.8862 160.586 69.4296C119.848 76.5872 79.362 98.4148 52.807 121.659C49.4762 124.585 46.2466 128.402 43.0576 132.907C39.8788 137.412 36.7708 142.606 33.9058 148.235C28.1654 159.502 23.3666 172.502 21.19 185.167C20.1168 191.504 19.6917 197.771 20.2384 203.754C20.7952 209.738 22.3238 215.478 25.3206 220.53C28.297 225.58 32.8326 229.844 38.674 232.546C44.5156 235.27 51.5516 236.514 59.7824 236.282C63.3054 236.19 66.697 235.036 69.5012 233.174C72.3258 231.312 74.6138 228.832 76.578 225.996C80.4858 220.316 83.28 213.108 85.801 204.726C90.7718 187.991 94.4466 166.396 99.3972 144.559C104.317 122.742 110.534 100.753 120.02 83.7954C124.748 75.3116 130.255 68.1136 136.684 62.677C143.143 57.2406 150.472 53.4948 159.331 51.784C172.978 49.172 184.722 49.7894 194.704 52.6748C204.686 55.5804 212.968 60.7534 219.68 67.5972C233.084 81.2442 240.13 101.897 239.552 123.522C238.996 145.126 230.876 167.45 214.75 184.367C198.602 201.264 174.507 213.098 140.672 213.624C120.273 213.928 105.168 211.378 94.7706 207.084C89.567 204.948 85.5376 202.408 82.4802 199.603C79.4228 196.789 77.2968 193.731 75.8692 190.36C73.0346 183.648 72.9232 175.265 75.6668 165.486C78.3902 155.747 83.9482 144.822 91.7234 133.696C107.264 111.403 131.602 88.301 158.693 70.3412C185.764 52.351 215.63 39.5338 241.76 37.0938C259.618 35.383 285.586 35.525 308.284 41.1742C319.644 43.9886 330.152 48.1694 338.474 53.9298C346.816 59.7208 352.93 66.9192 356.22 76.2332C359.876 86.681 358.712 98.1612 353.76 109.905C348.82 121.598 340.074 133.292 329.352 143.304C318.65 153.327 305.996 161.669 293.504 166.933C281.02 172.218 268.75 174.324 258.95 172.552C253.494 171.58 249.282 169.717 245.982 167.288C242.682 164.848 240.252 161.82 238.5 158.267C235.008 151.211 234.44 141.846 236.738 132.542C239.006 123.249 244.098 114.178 251.054 107.8C258.05 101.401 266.634 97.625 276.758 98.0806C288.096 98.607 300.316 102.677 311.99 109.419C323.652 116.141 334.738 125.506 343.88 136.308C353.032 147.1 360.21 159.32 364.26 171.641C368.308 183.982 369.23 196.343 366.172 207.762C362.62 221.178 354.084 235.928 342.19 250.08C330.314 264.244 315.128 277.83 298.566 289.23C282.002 300.64 264.042 309.852 246.71 315.4C229.368 320.978 212.694 322.822 198.733 319.976C193.165 318.852 188.862 317.142 185.623 315.148C182.373 313.142 180.176 310.874 178.647 308.414C177.129 305.944 176.258 303.242 175.964 300.234C175.671 297.238 175.985 293.938 176.896 290.516C178.688 283.672 182.909 276.372 188.64 270.298C194.37 264.214 201.568 259.364 209.008 256.986C215.964 254.708 227.404 253.838 239.826 254.85C250.052 255.65 261.016 257.724 271.008 261.004C281.01 264.264 290.05 268.75 296.44 273.974C299.638 276.576 302.18 279.34 303.952 282.144C305.732 284.958 306.776 287.772 307.13 290.748C307.484 293.736 307.17 296.934 305.884 300.66C304.598 304.376 302.29 308.586 298.616 313.264C287.48 327.488 275.918 337.542 264.306 344.376C252.684 351.188 240.99 354.854 229.146 356.14C206.356 358.558 182.747 351.664 160.1 339.252C141.999 329.34 124.221 316.21 108.924 300.902C106.464 298.432 102.08 302.108 104.085 304.962C116.851 323.156 133.029 340.214 152.011 352.666C175.661 368.166 203.228 376.984 231.038 374.078C245.444 372.6 259.842 367.842 273.418 359.368C286.994 350.894 299.73 338.756 311.22 322.68C315.492 316.706 318.458 310.886 320.16 305.166C321.85 299.466 322.224 293.846 321.344 288.612C320.474 283.378 318.358 278.6 315.442 274.43C312.526 270.238 308.82 266.624 304.62 263.464C296.216 257.158 285.798 252.572 274.714 249.22C263.628 245.87 251.874 243.794 240.768 242.904C227.242 241.86 214.78 242.58 205.344 245.576C195.595 248.714 186.878 254.708 179.913 262.088C172.968 269.478 167.744 278.276 165.304 287.458C164.089 292.044 163.593 296.742 164.028 301.38C164.474 306.016 165.891 310.592 168.452 314.722C171.004 318.852 174.669 322.488 179.336 325.352C184.013 328.228 189.672 330.374 196.354 331.73C213.12 335.102 231.676 332.804 250.366 326.83C269.064 320.826 287.946 311.098 305.358 299.122C322.772 287.134 338.696 272.91 351.382 257.796C364.056 242.67 373.542 226.684 377.784 210.86C381.55 196.728 380.296 181.957 375.678 167.895C371.042 153.813 363.064 140.368 353.062 128.533C343.04 116.709 330.972 106.493 318.004 98.9916C305.024 91.51 291.114 86.7216 277.336 86.0536C263.708 85.3752 251.772 90.7308 242.894 98.9412C233.984 107.162 227.87 118.176 225.036 129.667C222.23 141.147 222.646 153.246 227.678 163.582C230.188 168.725 233.904 173.372 238.824 176.996C243.724 180.621 249.788 183.192 256.844 184.437C269.914 186.725 284.22 183.921 298.2 178.06C312.182 172.157 325.88 163.086 337.614 152.132C349.326 141.168 359.076 128.321 364.896 114.623C367.802 107.769 369.706 100.702 370.282 93.555C370.86 86.4076 370.09 79.189 367.65 72.234C363.44 60.1662 355.32 50.832 345.368 43.968C335.396 37.0736 323.56 32.4876 311.21 29.41C286.498 23.2952 259.588 23.2344 240.616 25.006C211.51 27.79 180.257 41.4676 151.961 60.2068C123.685 78.9766 98.4152 102.839 81.721 126.711C73.3788 138.667 67.1628 150.624 63.913 162.185C60.6734 173.706 60.3796 185.045 64.6114 195.108C66.7172 200.11 69.9468 204.696 74.219 208.614C78.5014 212.532 83.8166 215.802 90.1238 218.394C102.748 223.576 119.372 226.148 140.845 225.864C177.463 225.388 205.232 212.198 223.638 192.82C242.064 173.463 251.186 148.255 251.834 123.836C252.46 99.4372 244.666 75.575 228.478 58.982C220.388 50.7106 210.174 44.3324 198.136 40.8498C186.099 37.347 172.289 36.75 157.012 39.6758C146.028 41.7614 136.582 46.6004 128.726 53.262C120.84 59.9236 114.502 68.3564 109.238 77.7818C98.729 96.6528 92.3914 119.594 87.3396 141.826C82.308 164.048 78.5926 185.622 73.9356 201.182C71.6374 208.948 69.0458 215.174 66.4034 218.95C65.0874 220.842 63.8116 222.098 62.698 222.828C61.5642 223.556 60.653 223.84 59.428 223.9C52.6248 224.092 47.5832 223.03 43.9182 221.32C40.2534 219.578 37.8236 217.26 35.981 214.202C34.1588 211.144 33.0046 207.226 32.5794 202.62C32.1542 198.024 32.468 192.77 33.4196 187.252C35.2926 176.217 39.7066 164.169 44.961 153.873C47.583 148.72 50.4178 144.002 53.2018 140.064C55.9758 136.136 58.7296 132.967 60.9974 130.993C85.7098 109.257 124.879 88.22 162.712 81.69C181.644 78.3896 200.16 78.683 216.45 83.8764C232.76 89.0902 246.944 99.0018 257.958 115.777C273.548 139.67 276.526 166.062 270.886 191.777C265.238 217.452 250.75 242.236 231.616 261.562C219.122 274.196 204.97 281.88 190.593 285.342C176.228 288.794 161.599 288.016 148.184 283.48C134.77 278.954 122.571 270.684 113.065 259.112C103.568 247.53 96.7448 232.648 94.1936 214.718C91.2374 193.964 97.7978 173.22 110.442 155.311C121.518 139.619 137.22 126.275 154.623 117.498C172.016 108.71 191.029 104.519 208.736 106.655C226.038 108.751 239.098 115.301 248.928 124.696C258.738 134.112 265.338 146.543 268.872 160.525C275.988 188.467 270.45 222.422 254.972 247.388C245.324 263.07 227.85 282.762 209.262 292.926C199.968 298.048 190.523 300.772 181.654 299.982C172.786 299.172 164.16 295.092 155.798 285.322C149.986 278.498 144.914 269.124 141.199 258.514C137.473 247.914 135.074 236.07 134.436 224.306C133.788 212.542 134.902 200.858 138.091 190.532C141.27 180.206 146.494 171.266 154.077 164.726C156.719 162.438 159.149 161.213 161.416 160.666C163.684 160.13 165.861 160.241 168.159 160.92C172.725 162.236 177.675 166.083 182.484 171.134C187.313 176.166 192.031 182.322 196.577 188.001C201.142 193.681 205.476 198.894 209.94 202.174C212.218 203.844 215.246 199.765 212.988 198.064Z" fill="#7000FF"/>
</svg>
